<svg width="335" height="113" viewBox="0 0 335 113" xmlns="http://www.w3.org/2000/svg"><g fill="none" fill-rule="evenodd"><g fill="#040608"><path d="M308.92 74.03c2.92 0 3.3.26 3.66.84l9.4 14.3c3.91 6 5 7.73 6.16 10.55-.21-2.5-.32-8.4-.32-12.06V74.81c0-.57.47-.78 3.34-.78h.37c2.72 0 3.4.21 3.4.78v36.03c0 .63-.27.79-3.03.79h-.32c-2.5 0-3.13-.16-3.55-.84l-9.4-14.3c-4.02-6.11-5.43-8.46-6.21-10.6.26 2.45.36 8.5.36 12.1v12.85c0 .63-.62.79-3.34.79h-.31c-2.87 0-3.45-.1-3.45-.79V74.81c0-.67.16-.78 2.98-.78h.26M298.53 74.03c.73 0 .89.1.89 2.77v.42c0 2.56-.21 2.87-.9 2.87h-14.35v9.5h12.17c.73 0 .88.1.88 2.77v.42c0 2.56-.2 2.87-.88 2.87h-12.17v9.92h14.57c.73 0 .89.1.89 2.77v.42c0 2.55-.21 2.87-.9 2.87h-19.78c-2.04 0-2.35-.1-2.35-.79V74.81c0-.67.31-.78 2.35-.78h19.58M267.51 90.53c2.04 0 2.35.1 2.35.78v17.24c0 .47-.05.78-.62 1.1-2.67 1.4-7.84 2.5-12.17 2.5-10.97 0-16.6-7.15-16.6-19.32 0-6.11 1.72-11.02 4.8-14.36 2.97-3.18 7.36-4.96 12.48-4.96 4.39 0 8.1 1.3 11.02 3.4.73.52.88.83-.42 2.97l-.63 1.04c-1.1 1.83-1.4 1.83-1.93 1.47-2.35-1.57-4.49-2.51-7.52-2.51-6.58 0-10.02 4.49-10.02 12.9 0 8.2 2.97 13.05 9.6 13.05 1.47 0 3.14-.26 4.5-.68V96.6h-5.8c-.68 0-.94-.21-.94-2.87v-.42c0-2.77.2-2.77.94-2.77h10.96M218.69 91.26h2.56c2.45 0 4.23-.62 5.27-1.72 1-1 1.46-2.46 1.46-4.28 0-1.62-.41-2.82-1.25-3.66-1.1-1.1-2.82-1.51-5.53-1.51h-2.51v11.17zm1.78-17.23c5.9-.05 9.81.73 12.53 3.55 1.67 1.73 2.6 4.28 2.6 7.57 0 4.91-2.29 8.46-6.47 10.66l1.2 2.19c3.14 5.69 5.64 9.45 8 12.58.46.63.2 1.05-2.04 1.05h-2.87c-1.78 0-2.51-.06-3.24-.79-1.3-1.4-3.19-4.43-6.43-10.44l-1.72-3.18h-3.34v13.62c0 .63-.78.79-3.55.79h-.58c-2.92 0-3.44-.16-3.44-.79V74.81c0-.67.31-.78 2.35-.78h7zM203.96 74.03c.73 0 .9.1.9 2.77v.42c0 2.56-.22 2.87-.9 2.87H189.6v9.5h12.17c.73 0 .89.1.89 2.77v.42c0 2.56-.21 2.87-.89 2.87H189.6v9.92h14.57c.73 0 .9.1.9 2.77v.42c0 2.55-.22 2.87-.9 2.87h-19.79c-2.03 0-2.35-.1-2.35-.79V74.81c0-.67.32-.78 2.35-.78h19.58M158.48 105.67h2.62c2.5 0 4.49-.26 5.95-1.51a4.9 4.9 0 0 0 1.46-3.76c0-1.51-.37-2.77-1.2-3.6-1.25-1.26-3.03-1.62-6.27-1.62h-2.56v10.5zm0-16.23h1.88c2.2 0 3.76-.42 4.91-1.41a4.6 4.6 0 0 0 1.41-3.5c0-1.26-.36-2.35-1.1-3.08-.99-1-2.55-1.41-5.22-1.41h-1.88v9.4zm1.62-15.4c5.59 0 9.4.88 11.86 3.49a8.43 8.43 0 0 1 2.35 6.1c0 2.93-1.2 5.8-5.07 7.95 4.23 1.51 6.95 4.28 6.95 8.92 0 2.88-.9 5.33-2.62 7.16-2.66 2.82-6.63 3.97-12.58 3.97h-7.73c-2.03 0-2.35-.1-2.35-.79V74.81c0-.67.32-.78 2.35-.78h6.84z"/></g><g fill="#040608"><path d="M318.05 39.78c1.35 0 1.39.17 1.39.4v17.04c0 .24-.04.4-1.39.4h-.2c-1.36 0-1.46-.13-1.46-.4V40.2c0-.27.1-.4 1.46-.4h.2zm-.14-7.6c1.19 0 2.13.94 2.13 2.13 0 1.18-.94 2.12-2.13 2.12a2.12 2.12 0 0 1-2.12-2.12c0-1.19.94-2.13 2.12-2.13zM301.42 48.03c0-2.27-.1-3.15-.5-3.92-.55-1.05-1.73-1.83-3.66-1.83-2.94 0-4.8 2.57-4.8 6.5 0 3.91 1.53 6.1 4.64 6.1 1.68 0 3.4-.84 4.32-1.99v-4.86zm1.49-8.25c1.08 0 1.32.1 1.35.44.14 1.66.2 6.42.2 8.38v5.61c0 2.94-.17 4.8-.64 6.36-.98 3.2-4.06 4.96-7.47 4.96-1.69 0-4.02-.4-5.1-1.04-.2-.1-.24-.4.03-1.19l.14-.4c.27-.81.4-.95.57-.95.17 0 .54.17.81.27a9.4 9.4 0 0 0 3.21.58c2.88 0 4.67-1.22 5.2-3.86.18-.87.21-2.33.21-3.24-1.22 1.32-3.21 1.93-4.93 1.93-4.87 0-7.2-3.76-7.2-8.72.03-5.85 3.34-9.47 7.7-9.47 1.93 0 3.59.81 4.4 2.17h.03v-1.39c0-.3.24-.44 1.39-.44h.1zM272.45 39.78c1.22 0 1.4.1 1.4.4l.02 1.53h.04c1.18-1.39 3.41-2.27 5.5-2.27 1.87 0 3.52.65 4.64 1.8 1.21 1.24 1.72 3 1.72 5.74v10.24c0 .24-.03.4-1.38.4h-.2c-1.36 0-1.46-.13-1.46-.4V48.4c0-2.74-.1-4.02-.91-4.97-.64-.78-1.73-1.11-3.21-1.11a5.6 5.6 0 0 0-3.59 1.21c-.4.37-.77.95-.91 2.4-.07.95-.1 2.67-.1 4.63v6.66c0 .24-.03.4-1.39.4h-.2c-1.35 0-1.45-.13-1.45-.4V45.7c0-2.3-.07-4.67-.07-5.51 0-.27.1-.4 1.39-.4h.16M264.68 39.78c1.35 0 1.39.17 1.39.4v17.04c0 .24-.04.4-1.39.4h-.2c-1.35 0-1.46-.13-1.46-.4V40.2c0-.27.1-.4 1.46-.4h.2zm-.13-7.6c1.18 0 2.12.94 2.12 2.13 0 1.18-.94 2.12-2.12 2.12a2.12 2.12 0 0 1-2.13-2.12c0-1.19.94-2.13 2.13-2.13zM245.11 39.78c1.22 0 1.39.1 1.39.4l.03 1.53h.03c1.19-1.39 3.42-2.27 5.51-2.27 1.86 0 3.52.65 4.63 1.8 1.22 1.24 1.73 3 1.73 5.74v10.24c0 .24-.04.4-1.39.4h-.2c-1.35 0-1.45-.13-1.45-.4V48.4c0-2.74-.1-4.02-.92-4.97-.64-.78-1.72-1.11-3.2-1.11a5.6 5.6 0 0 0-3.59 1.21c-.4.37-.78.95-.91 2.4-.07.95-.1 2.67-.1 4.63v6.66c0 .24-.04.4-1.39.4h-.2c-1.35 0-1.46-.13-1.46-.4V45.7c0-2.3-.06-4.67-.06-5.51 0-.27.1-.4 1.38-.4h.17M225.6 39.78c1.23 0 1.4.1 1.4.4l.03 1.53h.03c1.19-1.39 3.42-2.27 5.51-2.27 1.86 0 3.52.65 4.63 1.8 1.22 1.24 1.73 3 1.73 5.74v10.24c0 .24-.04.4-1.39.4h-.2c-1.35 0-1.46-.13-1.46-.4V48.4c0-2.74-.1-4.02-.9-4.97-.65-.78-1.73-1.11-3.22-1.11a5.6 5.6 0 0 0-3.58 1.21c-.4.37-.78.95-.92 2.4a77 77 0 0 0-.1 4.63v6.66c0 .24-.03.4-1.38.4h-.2c-1.36 0-1.46-.13-1.46-.4V45.7c0-2.3-.07-4.67-.07-5.51 0-.27.1-.4 1.39-.4h.17M216.11 44.48a4.93 4.93 0 0 0-3.89-2.3c-3.1 0-4.93 2.6-4.93 6.66 0 3.18 1.12 6.42 4.6 6.42 1.11 0 2.46-.34 3.38-1.32.7-.78.84-1.72.84-4.66v-4.8zm1.8-4.7c1.28 0 1.31.14 1.31.4 0 .82-.07 2.98-.07 5.14v4.74c0 3.1.14 5.3.24 7.16 0 .27-.17.4-1.22.4h-.13c-1.05 0-1.25-.1-1.29-.4l-.2-1.55a6.8 6.8 0 0 1-5.2 2.3c-4.94 0-7.24-4.1-7.24-8.96 0-5.78 3.32-9.57 7.78-9.57 2.02 0 3.61.95 4.56 2.17l.17-1.42c.03-.4.2-.4 1.21-.4h.07zM196.81 43.47a6.09 6.09 0 0 0-3.65-1.25c-3.17 0-5.2 2.67-5.2 6.76 0 4.15 2.03 6.28 4.66 6.28 1.15 0 2.43-.37 3.21-1.15.78-.78.98-1.9.98-4.73v-5.91zm1.66-11.53c1.08 0 1.38.1 1.38.44V53.4c0 1.7.27 1.83 1.19 1.83.2 0 .3.2.3.91v.24c0 .8-.1 1.04-.3 1.11-.48.17-.92.2-1.49.2-1.01 0-1.93-.64-2.33-1.96h-.04c-.84 1.15-2.73 2.24-5.17 2.24-4.46 0-7.23-3.35-7.23-8.9 0-5.06 2.64-9.63 8.21-9.63a7.6 7.6 0 0 1 3.82 1.12v-8.18c0-.34.3-.44 1.46-.44h.2zM176.03 34.78c1.35 0 1.38.17 1.38.4v4.6h4.26c.24 0 .3.17.3 1.05v.27c0 .91-.06 1.08-.3 1.08h-4.26v9.97c0 1.28.1 2.13.54 2.6.37.4.95.61 1.73.61a8.4 8.4 0 0 0 2.3-.44c.33-.1.43.04.6.68l.1.44c.17.7.17.91-.1 1.08-.84.54-2.3.84-3.55.84-1.52 0-2.63-.4-3.38-1.11-.98-.91-1.28-2.2-1.28-4.46v-10.2h-2.13c-.24 0-.3-.18-.3-1.09v-.27c0-.88.06-1.05.3-1.05h2.13v-4.6c0-.27.1-.4 1.45-.4h.2M152.67 33.3c.95 0 1.45.1 1.45.36v14.88c0 4.76 2.03 6.72 5.78 6.72 3.69 0 5.78-2.26 5.78-6.7v-14.9c0-.27.5-.37 1.39-.37h.37c.95 0 1.45.1 1.45.37v14.5c0 6.66-3.04 9.8-9.12 9.8-5.82 0-8.86-2.77-8.86-9.19v-15.1c0-.28.5-.38 1.39-.38h.37"/></g><path d="M79.19 44.07c1.32 13.55-13.7 15.15-12.99 18.7.9 4.57 23.5-4.4 30.08 16.96 2.57 8.35-3.4 19.22-13.92 24.24 14.77-6.56 31.21-17.86 46.23-32.65 16.97-16.7 2.11-35.27-16.92-50C93.52 7.24 70.27-2.15 62.21 1.41c-4.65 2.06-9.55 10-13.82 20.67.66.21 1.31.43 1.97.66 15.5 5.32 27.9 11.86 28.83 21.32" fill="#B3CB00"/><path d="M79.9 105.04l2.46-1.07c10.52-5.02 16.5-15.89 13.92-24.24-6.57-21.37-29.17-12.39-30.08-16.96-.7-3.55 14.31-5.15 12.99-18.7-.92-9.46-13.32-16-28.83-21.32-.66-.23-1.31-.45-1.97-.66l-.59 1.49C37.3 50.88 31 94.46 42.7 105.76c5.16 4.98 14.03 5.87 24.8 3.34a95.4 95.4 0 0 0 5.42-1.51 91.3 91.3 0 0 0 6.97-2.55" fill="#009CA3"/><path d="M42.7 105.76C31 94.46 37.3 50.87 47.8 23.58l.6-1.49c-10.32-3.33-19.78-4.85-23.74-3.56-16.78 5.44-44.5 92.1-2.72 94.22 17.34.87 33.04-.56 45.56-3.65-10.77 2.53-19.64 1.64-24.8-3.34" fill="#57C1D5"/></g></svg>